<svg xmlns="http://www.w3.org/2000/svg">
  <symbol id="Notification" viewBox="0 0 134 134">
    <path fill="" d="M15.0312 34.6789C16.9734 34.6789 18.5625 33.1583 18.5625 31.2997H11.5C11.5 33.1583 13.0714 34.6789 15.0312 34.6789Z"/>
    <path fill="" d="M5.25 11.8021C5.7355 10.5033 6.08109 9.75489 7 8.69206C7.81681 7.74732 8.5 7.25666 9.5 6.65857C10.5 6.06048 12.5 5.34278 12.5 5.34278C12.5 5.34278 12.2932 4.29146 12.5 3.66814C12.891 2.48985 13.8331 1.74162 15.125 1.74162C16.4169 1.74162 17.359 2.48985 17.75 3.66814C17.9568 4.29146 17.75 5.34278 17.75 5.34278C17.75 5.34278 19.6633 5.99563 20.75 6.65857C21.8305 7.3177 22.4332 7.74732 23.25 8.69206C24.1689 9.75489 24.5145 10.5033 25 11.8021C25.3549 12.7516 25.4786 13.3155 25.625 14.3141C25.7676 15.2866 25.75 16.826 25.75 16.826V24.5538L29.25 27.9504V29.6251H15.25H1L1 27.9504L4.5 24.5538L4.5 16.826C4.5 16.826 4.48237 15.2866 4.625 14.3141C4.77145 13.3155 4.89509 12.7516 5.25 11.8021Z"/>
  </symbol>
</svg>
