<svg width="34" height="35" viewBox="0 0 34 35" fill="none" xmlns="http://www.w3.org/2000/svg">
<mask id="path-1-inside-1" fill="white">
<path fill-rule="evenodd" clip-rule="evenodd" d="M14 2.45409C14 1.82579 13.4325 1.34762 12.8228 1.4992C11.7712 1.76063 10.7446 2.12323 9.75777 2.5834C7.74636 3.52133 5.93939 4.84626 4.44002 6.48252C2.94066 8.11879 1.77826 10.0344 1.0192 12.1199C0.260142 14.2054 -0.0807161 16.4199 0.0160893 18.6372C0.112895 20.8544 0.645468 23.0309 1.5834 25.0423C2.52133 27.0537 3.84626 28.8606 5.48253 30.36C7.1188 31.8594 9.03437 33.0218 11.1199 33.7808C13.2054 34.5399 15.4199 34.8807 17.6372 34.7839C19.8544 34.6871 22.0309 34.1546 24.0423 33.2166C26.0537 32.2787 27.8606 30.9538 29.36 29.3175C30.8594 27.6812 32.0218 25.7657 32.7808 23.6802C33.5399 21.5947 33.8807 19.3801 33.7839 17.1628C33.6871 14.9456 33.1546 12.7692 32.2166 10.7578C31.2787 8.74635 29.9538 6.93938 28.3175 5.44002C26.6812 3.94065 24.7657 2.77826 22.6802 2.0192C22.1899 1.84074 21.6924 1.6854 21.1895 1.55343C20.5764 1.39256 20 1.87223 20 2.50602C20 2.98417 20.3355 3.39358 20.797 3.51864C21.2012 3.62817 21.6013 3.75488 21.9961 3.89859C23.8348 4.56781 25.5237 5.59265 26.9663 6.91457C28.4089 8.2365 29.5771 9.82963 30.404 11.603C31.2309 13.3764 31.7005 15.2952 31.7858 17.2501C31.8712 19.2049 31.5707 21.1574 30.9014 22.9961C30.2322 24.8348 29.2074 26.5237 27.8855 27.9663C26.5635 29.4089 24.9704 30.5771 23.197 31.404C21.4237 32.2309 19.5048 32.7005 17.5499 32.7858C15.5951 32.8712 13.6426 32.5707 11.8039 31.9014C9.96521 31.2322 8.27634 30.2074 6.83371 28.8855C5.39108 27.5635 4.22295 25.9704 3.39602 24.197C2.56908 22.4237 2.09953 20.5048 2.01419 18.5499C1.92884 16.5951 2.22936 14.6426 2.89859 12.8039C3.56782 10.9652 4.59265 9.27633 5.91458 7.83371C7.23651 6.39108 8.82963 5.22295 10.603 4.39601C11.4369 4.00714 12.3031 3.6973 13.19 3.46929C13.6577 3.34904 14 2.93703 14 2.45409Z"/>
</mask>
<path d="M9.75777 2.5834L13.9839 11.6465L13.9839 11.6465L9.75777 2.5834ZM4.44002 6.48252L-2.93274 -0.273381L-2.93275 -0.273378L4.44002 6.48252ZM1.0192 12.1199L-8.37772 8.69966V8.69966L1.0192 12.1199ZM0.0160893 18.6372L10.0066 18.201L0.0160893 18.6372ZM1.5834 25.0423L10.6465 20.8161L1.5834 25.0423ZM5.48253 30.36L12.2384 22.9872L12.2384 22.9872L5.48253 30.36ZM11.1199 33.7808L7.69966 43.1778L7.69967 43.1778L11.1199 33.7808ZM17.6372 34.7839L17.201 24.7935H17.201L17.6372 34.7839ZM24.0423 33.2166L28.2684 42.2797L28.2684 42.2797L24.0423 33.2166ZM29.36 29.3175L21.9872 22.5616H21.9872L29.36 29.3175ZM33.7839 17.1628L23.7935 17.599V17.5991L33.7839 17.1628ZM32.2166 10.7578L23.1535 14.9839L23.1535 14.9839L32.2166 10.7578ZM28.3175 5.44002L21.5616 12.8128L28.3175 5.44002ZM22.6802 2.0192L19.26 11.4161L22.6802 2.0192ZM21.9961 3.89859L18.5759 13.2955L18.5759 13.2955L21.9961 3.89859ZM26.9663 6.91457L33.7222 -0.458201V-0.458203L26.9663 6.91457ZM30.404 11.603L21.3409 15.8292L21.3409 15.8292L30.404 11.603ZM31.7858 17.2501L41.7763 16.8139L31.7858 17.2501ZM30.9014 22.9961L40.2984 26.4163V26.4163L30.9014 22.9961ZM23.197 31.404L27.4232 40.4671L27.4232 40.4671L23.197 31.404ZM17.5499 32.7858L17.1137 22.7954H17.1137L17.5499 32.7858ZM11.8039 31.9014L15.2241 22.5045L15.2241 22.5045L11.8039 31.9014ZM6.83371 28.8855L0.0778043 36.2582L0.0778068 36.2582L6.83371 28.8855ZM3.39602 24.197L12.4591 19.9708L12.4591 19.9708L3.39602 24.197ZM2.01419 18.5499L-7.9763 18.9861L2.01419 18.5499ZM2.89859 12.8039L-6.49834 9.3837L-6.49834 9.3837L2.89859 12.8039ZM5.91458 7.83371L13.2873 14.5896L13.2873 14.5896L5.91458 7.83371ZM10.603 4.39601L14.8292 13.4591L14.8292 13.4591L10.603 4.39601ZM20.797 3.51864L18.1816 13.1706L20.797 3.51864ZM12.8228 1.4992L10.4102 -8.20542L12.8228 1.4992ZM13.9839 11.6465C14.3869 11.4586 14.806 11.3106 15.2353 11.2038L10.4102 -8.20542C8.73637 -7.7893 7.10235 -7.21214 5.53159 -6.47968L13.9839 11.6465ZM11.8128 13.2384C12.425 12.5704 13.1627 12.0294 13.9839 11.6465L5.53159 -6.47968C2.33 -4.98676 -0.546181 -2.87786 -2.93274 -0.273381L11.8128 13.2384ZM10.4161 15.5401C10.726 14.6886 11.2006 13.9065 11.8128 13.2384L-2.93275 -0.273378C-5.31931 2.3311 -7.16951 5.38014 -8.37772 8.69966L10.4161 15.5401ZM10.0066 18.201C9.96705 17.2957 10.1062 16.3915 10.4161 15.5401L-8.37772 8.69966C-9.58593 12.0192 -10.1285 15.5442 -9.97439 19.0734L10.0066 18.201ZM10.6465 20.8161C10.2635 19.9949 10.0461 19.1062 10.0066 18.201L-9.97439 19.0734C-9.82031 22.6026 -8.9726 26.0669 -7.47968 29.2684L10.6465 20.8161ZM12.2384 22.9872C11.5704 22.3751 11.0294 21.6373 10.6465 20.8161L-7.47968 29.2684C-5.98676 32.47 -3.87785 35.3462 -1.27338 37.7328L12.2384 22.9872ZM14.5401 24.3839C13.6886 24.074 12.9065 23.5994 12.2384 22.9872L-1.27338 37.7328C1.3311 40.1193 4.38014 41.9695 7.69966 43.1778L14.5401 24.3839ZM17.201 24.7935C16.2957 24.833 15.3915 24.6938 14.5401 24.3839L7.69967 43.1778C11.0192 44.386 14.5442 44.9285 18.0734 44.7744L17.201 24.7935ZM19.8161 24.1535C18.9949 24.5365 18.1062 24.7539 17.201 24.7935L18.0734 44.7744C21.6026 44.6203 25.0669 43.7726 28.2684 42.2797L19.8161 24.1535ZM21.9872 22.5616C21.3751 23.2297 20.6373 23.7706 19.8161 24.1536L28.2684 42.2797C31.47 40.7868 34.3462 38.6779 36.7328 36.0734L21.9872 22.5616ZM23.3839 20.26C23.074 21.1114 22.5994 21.8935 21.9872 22.5616L36.7328 36.0734C39.1193 33.4689 40.9695 30.4199 42.1778 27.1004L23.3839 20.26ZM23.7935 17.5991C23.833 18.5043 23.6938 19.4085 23.3839 20.26L42.1778 27.1004C43.386 23.7808 43.9285 20.2558 43.7744 16.7266L23.7935 17.5991ZM23.1535 14.9839C23.5365 15.8052 23.7539 16.6938 23.7935 17.599L43.7744 16.7267C43.6203 13.1975 42.7726 9.73316 41.2797 6.53157L23.1535 14.9839ZM21.5616 12.8128C22.2297 13.425 22.7706 14.1627 23.1535 14.9839L41.2797 6.53158C39.7868 3.32999 37.6779 0.453808 35.0734 -1.93276L21.5616 12.8128ZM19.26 11.4161C20.1114 11.726 20.8935 12.2006 21.5616 12.8128L35.0734 -1.93276C32.4689 -4.31932 29.4199 -6.16952 26.1004 -7.37773L19.26 11.4161ZM18.6513 11.226C18.8567 11.2798 19.0598 11.3433 19.26 11.4161L26.1004 -7.37773C25.32 -7.66177 24.5282 -7.90903 23.7276 -8.1191L18.6513 11.226ZM25.4163 -5.49834C24.7565 -5.73849 24.0879 -5.95023 23.4124 -6.13328L18.1816 13.1706C18.3145 13.2066 18.4461 13.2482 18.5759 13.2955L25.4163 -5.49834ZM33.7222 -0.458203C31.3114 -2.66732 28.489 -4.37997 25.4163 -5.49834L18.5759 13.2955C19.1806 13.5156 19.736 13.8526 20.2104 14.2873L33.7222 -0.458203ZM39.4671 7.37682C38.0852 4.41326 36.133 1.75092 33.7222 -0.458201L20.2104 14.2873C20.6848 14.7221 21.069 15.246 21.3409 15.8292L39.4671 7.37682ZM41.7763 16.8139C41.6337 13.5471 40.849 10.3404 39.4671 7.37681L21.3409 15.8292C21.6129 16.4124 21.7673 17.0434 21.7954 17.6863L41.7763 16.8139ZM40.2984 26.4163C41.4167 23.3436 41.919 20.0807 41.7763 16.8139L21.7954 17.6863C21.8234 18.3291 21.7246 18.9712 21.5045 19.5759L40.2984 26.4163ZM35.2582 34.7222C37.4674 32.3114 39.18 29.489 40.2984 26.4163L21.5045 19.5759C21.2844 20.1806 20.9474 20.736 20.5127 21.2104L35.2582 34.7222ZM27.4232 40.4671C30.3868 39.0852 33.0491 37.1331 35.2582 34.7222L20.5127 21.2104C20.078 21.6848 19.554 22.069 18.9708 22.3409L27.4232 40.4671ZM17.9861 42.7763C21.2529 42.6337 24.4597 41.849 27.4232 40.4671L18.9709 22.3409C18.3877 22.6129 17.7566 22.7673 17.1137 22.7954L17.9861 42.7763ZM8.3837 41.2984C11.4564 42.4167 14.7193 42.919 17.9861 42.7763L17.1137 22.7954C16.4709 22.8234 15.8288 22.7246 15.2241 22.5045L8.3837 41.2984ZM0.0778068 36.2582C2.48864 38.4673 5.31099 40.18 8.38371 41.2984L15.2241 22.5045C14.6194 22.2844 14.064 21.9474 13.5896 21.5127L0.0778068 36.2582ZM-5.66706 28.4232C-4.28514 31.3868 -2.33303 34.0491 0.0778043 36.2582L13.5896 21.5127C13.1152 21.078 12.731 20.554 12.4591 19.9708L-5.66706 28.4232ZM-7.9763 18.9861C-7.83367 22.2529 -7.04899 25.4597 -5.66706 28.4232L12.4591 19.9708C12.1872 19.3877 12.0327 18.7566 12.0047 18.1137L-7.9763 18.9861ZM-6.49834 9.3837C-7.61672 12.4564 -8.11893 15.7193 -7.9763 18.9861L12.0047 18.1137C11.9766 17.4709 12.0754 16.8288 12.2955 16.2241L-6.49834 9.3837ZM-1.45819 1.0778C-3.66732 3.48864 -5.37996 6.31098 -6.49834 9.3837L12.2955 16.2241C12.5156 15.6194 12.8526 15.064 13.2873 14.5896L-1.45819 1.0778ZM6.37683 -4.66707C3.41328 -3.28514 0.750934 -1.33303 -1.45819 1.0778L13.2873 14.5896C13.7221 14.1152 14.246 13.731 14.8292 13.4591L6.37683 -4.66707ZM10.7 -6.21576C9.21788 -5.83471 7.77045 -5.31692 6.37682 -4.66707L14.8292 13.4591C15.1034 13.3312 15.3883 13.2293 15.6799 13.1543L10.7 -6.21576ZM15.6799 13.1543C20.2423 11.9814 24 7.82849 24 2.45409H4C4 -1.95444 7.07309 -5.2833 10.7 -6.21576L15.6799 13.1543ZM10 2.50602C10 7.82189 13.6806 11.9509 18.1816 13.1706L23.4124 -6.13328C26.9904 -5.16375 30 -1.85355 30 2.50602H10ZM23.7276 -8.1191C16.2659 -10.0771 10 -4.14493 10 2.50602H30C30 7.88938 24.8869 12.8622 18.6513 11.226L23.7276 -8.1191ZM15.2353 11.2038C9.03584 12.745 4 7.80001 4 2.45409H24C24 -4.14843 17.8292 -10.0498 10.4102 -8.20542L15.2353 11.2038Z" fill="white" mask="url(#path-1-inside-1)"/>
<rect x="16" width="2" height="18" rx="1" fill="white"/>
</svg>
