<svg display="block" xmlns="http://www.w3.org/2000/svg">
  <symbol id="Notification" viewBox="0 0 31 36">
    <g>
      <path fill="none" fill-rule="evenodd" clip-rule="evenodd" d="M15.0312 34.6789C16.9734 34.6789 18.5625 33.1583 18.5625 31.2997H11.5C11.5 33.1583 13.0714 34.6789 15.0312 34.6789Z" stroke="white" stroke-width="2"/>
      <path fill="none" d="M5.25 11.8021C5.7355 10.5033 6.08109 9.75489 7 8.69206C7.81681 7.74732 8.5 7.25666 9.5 6.65857C10.5 6.06048 12.5 5.34278 12.5 5.34278C12.5 5.34278 12.2932 4.29146 12.5 3.66814C12.891 2.48985 13.8331 1.74162 15.125 1.74162C16.4169 1.74162 17.359 2.48985 17.75 3.66814C17.9568 4.29146 17.75 5.34278 17.75 5.34278C17.75 5.34278 19.6633 5.99563 20.75 6.65857C21.8305 7.3177 22.4332 7.74732 23.25 8.69206C24.1689 9.75489 24.5145 10.5033 25 11.8021C25.3549 12.7516 25.4786 13.3155 25.625 14.3141C25.7676 15.2866 25.75 16.826 25.75 16.826V24.5538L29.25 27.9504V29.6251H15.25H1L1 27.9504L4.5 24.5538L4.5 16.826C4.5 16.826 4.48237 15.2866 4.625 14.3141C4.77145 13.3155 4.89509 12.7516 5.25 11.8021Z" stroke="white" stroke-width="2" />
    </g>
  </symbol>

  <symbol id="Exit" viewBox="0 0 34 35">
    <g>
      <path fill-rule="evenodd" clip-rule="evenodd" d="M14 2.45409C14 1.82579 13.4325 1.34762 12.8228 1.4992C11.7712 1.76063 10.7446 2.12323 9.75777 2.5834C7.74636 3.52133 5.93939 4.84626 4.44002 6.48252C2.94066 8.11879 1.77826 10.0344 1.0192 12.1199C0.260142 14.2054 -0.0807161 16.4199 0.0160893 18.6372C0.112895 20.8544 0.645468 23.0309 1.5834 25.0423C2.52133 27.0537 3.84626 28.8606 5.48253 30.36C7.1188 31.8594 9.03437 33.0218 11.1199 33.7808C13.2054 34.5399 15.4199 34.8807 17.6372 34.7839C19.8544 34.6871 22.0309 34.1546 24.0423 33.2166C26.0537 32.2787 27.8606 30.9538 29.36 29.3175C30.8594 27.6812 32.0218 25.7657 32.7808 23.6802C33.5399 21.5947 33.8807 19.3801 33.7839 17.1628C33.6871 14.9456 33.1546 12.7692 32.2166 10.7578C31.2787 8.74635 29.9538 6.93938 28.3175 5.44002C26.6812 3.94065 24.7657 2.77826 22.6802 2.0192C22.1899 1.84074 21.6924 1.6854 21.1895 1.55343C20.5764 1.39256 20 1.87223 20 2.50602C20 2.98417 20.3355 3.39358 20.797 3.51864C21.2012 3.62817 21.6013 3.75488 21.9961 3.89859C23.8348 4.56781 25.5237 5.59265 26.9663 6.91457C28.4089 8.2365 29.5771 9.82963 30.404 11.603C31.2309 13.3764 31.7005 15.2952 31.7858 17.2501C31.8712 19.2049 31.5707 21.1574 30.9014 22.9961C30.2322 24.8348 29.2074 26.5237 27.8855 27.9663C26.5635 29.4089 24.9704 30.5771 23.197 31.404C21.4237 32.2309 19.5048 32.7005 17.5499 32.7858C15.5951 32.8712 13.6426 32.5707 11.8039 31.9014C9.96521 31.2322 8.27634 30.2074 6.83371 28.8855C5.39108 27.5635 4.22295 25.9704 3.39602 24.197C2.56908 22.4237 2.09953 20.5048 2.01419 18.5499C1.92884 16.5951 2.22936 14.6426 2.89859 12.8039C3.56782 10.9652 4.59265 9.27633 5.91458 7.83371C7.23651 6.39108 8.82963 5.22295 10.603 4.39601C11.4369 4.00714 12.3031 3.6973 13.19 3.46929C13.6577 3.34904 14 2.93703 14 2.45409Z"/>
      <rect x="16" width="2" height="18" rx="1"/>
    </g>
  </symbol>
</svg>